<svg width="778" height="607" viewBox="0 0 778 607" fill="none" xmlns="http://www.w3.org/2000/svg">
<mask id="mask0_1_22" style="mask-type:alpha" maskUnits="userSpaceOnUse" x="0" y="0" width="389" height="607">
<rect width="389" height="607" fill="#D9D9D9"/>
</mask>
<g mask="url(#mask0_1_22)">
<path d="M568.202 323.23V512.44C568.202 512.44 246 516 221 514.5C221 489.5 225.5 293.498 225.5 293.498C225.5 293.498 210.5 314.998 204.5 322.498C194.5 316.998 131 272.5 120.5 263.498C131 244.998 207.5 119.849 228 107.498C248.5 95.1478 318 78.5 318 78.5C335.691 80.8542 356 86.0002 389 86.0002C422 86.0002 435.52 81.1142 457.339 78.76L595.328 127.654L738.035 228.158L646.632 355.826L568.202 323.23Z" fill="#F9F9F9"/>
<path d="M225.5 293.498C225.5 293.498 221 489.5 221 514.5C246 516 568.202 512.44 568.202 512.44V323.23L646.632 355.826L738.035 228.158L595.328 127.654L457.339 78.76C435.52 81.1142 422 86.0002 389 86.0002C356 86.0002 335.691 80.8542 318 78.5C318 78.5 248.5 95.1478 228 107.498C207.5 119.849 131 244.998 120.5 263.498C131 272.5 194.5 316.998 204.5 322.498C210.5 314.998 225.5 293.498 225.5 293.498ZM225.5 293.498C225.5 293.498 227 277 223 259.5" stroke="#040404" stroke-width="1.08984"/>
<path d="M309 81C316.5 102 341 133 388 133C426.242 133 457.217 105.442 465.875 86.9981" stroke="#040404" stroke-width="1.08984"/>
<path d="M306.5 81.5C312 100.5 338.5 136 387.5 136C436.5 136 467.985 102.705 478 80.2775" stroke="#040404" stroke-opacity="0.2" stroke-width="0.7" stroke-linecap="round" stroke-dasharray="3 3"/>
<path d="M318 78.5C324.672 95.7891 347.5 122 388 122C428.5 122 453 92.5 456.665 79.7587" stroke="#040404" stroke-width="1.08984"/>
<path d="M323 88C338.638 91.9501 368.836 95.5448 388 95.5C409.948 95.4487 424.003 89.2483 442.892 86" stroke="#040404" stroke-width="1.08984"/>
<path d="M326 92.5C341.638 96.4501 368.836 100.045 388 100C409.948 99.9487 424.003 93.2483 442.892 90" stroke="#040404" stroke-opacity="0.2" stroke-width="0.7" stroke-linecap="round" stroke-dasharray="3 3"/>
<path opacity="0.5" d="M234.272 171C241 195.5 231.426 286.727 225.5 293.5" stroke="#363636" stroke-opacity="0.5" stroke-width="1.08984"/>
<path d="M222 495.087C239.414 497.651 568 494 568 494" stroke="#040404" stroke-opacity="0.2" stroke-width="0.7" stroke-linecap="round" stroke-dasharray="3 3"/>
<path d="M222 491.087C239.414 493.651 568 490 568 490" stroke="#040404" stroke-opacity="0.2" stroke-width="0.7" stroke-linecap="round" stroke-dasharray="3 3"/>
<path d="M128 251.5C138.875 260.502 203.643 304.5 214 310" stroke="#040404" stroke-opacity="0.2" stroke-width="0.7" stroke-linecap="round" stroke-dasharray="3 3"/>
<path d="M129.5 249C140.375 258.002 205.643 302.5 216 308" stroke="#040404" stroke-opacity="0.2" stroke-width="0.7" stroke-linecap="round" stroke-dasharray="3 3"/>
</g>
<mask id="mask1_1_22" style="mask-type:alpha" maskUnits="userSpaceOnUse" x="388" y="0" width="390" height="607">
<rect width="389" height="607" transform="matrix(-1 0 0 1 777.035 0)" fill="#D9D9D9"/>
</mask>
<g mask="url(#mask1_1_22)">
<path d="M208.833 323.23V512.44C208.833 512.44 531.035 516 556.035 514.5C556.035 489.5 551.535 293.498 551.535 293.498C551.535 293.498 566.535 314.998 572.535 322.498C582.535 316.998 646.035 272.5 656.535 263.498C646.035 244.998 569.535 119.849 549.035 107.498C528.535 95.1478 459.035 78.5 459.035 78.5C441.344 80.8542 421.035 86.0002 388.035 86.0002C355.035 86.0002 341.515 81.1142 319.696 78.76L181.707 127.654L39 228.158L130.403 355.826L208.833 323.23Z" fill="#F9F9F9"/>
<path d="M551.535 293.498C551.535 293.498 556.035 489.5 556.035 514.5C531.035 516 208.833 512.44 208.833 512.44V323.23L130.403 355.826L39 228.158L181.707 127.654L319.696 78.76C341.515 81.1142 355.035 86.0002 388.035 86.0002C421.035 86.0002 441.344 80.8542 459.035 78.5C459.035 78.5 528.535 95.1478 549.035 107.498C569.535 119.849 646.035 244.998 656.535 263.498C646.035 272.5 582.535 316.998 572.535 322.498C566.535 314.998 551.535 293.498 551.535 293.498ZM551.535 293.498C551.535 293.498 550.035 277 554.035 259.5" stroke="#040404" stroke-width="1.08984"/>
<path d="M468.035 81C460.535 102 436.035 133 389.035 133C350.793 133 319.817 105.442 311.16 86.9981" stroke="#040404" stroke-width="1.08984"/>
<path d="M470.535 81.5C465.035 100.5 438.535 136 389.535 136C340.535 136 309.05 102.705 299.035 80.2775" stroke="#040404" stroke-opacity="0.2" stroke-width="0.7" stroke-linecap="round" stroke-dasharray="3 3"/>
<path d="M459.035 78.5C452.363 95.7891 429.535 122 389.035 122C348.535 122 324.035 92.5 320.37 79.7587" stroke="#040404" stroke-width="1.08984"/>
<path d="M454.035 88C438.397 91.9501 408.199 95.5448 389.035 95.5C367.087 95.4487 353.032 89.2483 334.142 86" stroke="#040404" stroke-width="1.08984"/>
<path d="M451.035 92.5C435.397 96.4501 408.199 100.045 389.035 100C367.087 99.9487 353.032 93.2483 334.142 90" stroke="#040404" stroke-opacity="0.2" stroke-width="0.7" stroke-linecap="round" stroke-dasharray="3 3"/>
<path d="M542.763 171C536.035 195.5 545.609 286.727 551.535 293.5" stroke="#363636" stroke-opacity="0.5" stroke-width="1.08984"/>
<path d="M555.035 495.087C537.62 497.651 209.035 494 209.035 494" stroke="#040404" stroke-opacity="0.2" stroke-width="0.7" stroke-linecap="round" stroke-dasharray="3 3"/>
<path d="M555.035 491.087C537.62 493.651 209.035 490 209.035 490" stroke="#040404" stroke-opacity="0.2" stroke-width="0.7" stroke-linecap="round" stroke-dasharray="3 3"/>
<path d="M649.035 251.5C638.16 260.502 573.392 304.5 563.035 310" stroke="#040404" stroke-opacity="0.2" stroke-width="0.7" stroke-linecap="round" stroke-dasharray="3 3"/>
<path d="M647.535 249C636.66 258.002 571.392 302.5 561.035 308" stroke="#040404" stroke-opacity="0.2" stroke-width="0.7" stroke-linecap="round" stroke-dasharray="3 3"/>
</g>
</svg>
