<svg width="779" height="607" viewBox="0 0 779 607" fill="none" xmlns="http://www.w3.org/2000/svg">
<mask id="mask0_1_70" style="mask-type:alpha" maskUnits="userSpaceOnUse" x="0" y="0" width="389" height="607">
<rect width="389" height="607" fill="#D9D9D9"/>
</mask>
<g mask="url(#mask0_1_70)">
<path d="M568.202 323.23V512.44C568.202 512.44 246 516 221 514.5C221 489.5 225.5 293.498 225.5 293.498C225.5 293.498 210.5 314.998 204.5 322.498C194.5 316.998 131 272.5 120.5 263.498C131 244.998 207.5 119.849 228 107.498C248.5 95.1478 318 78.5 318 78.5C329.5 82.5 356 86.0002 389 86.0002C422 86.0002 435.52 81.1142 457.339 78.76L595.328 127.654L738.035 228.158L646.632 355.826L568.202 323.23Z" fill="#F9F9F9"/>
<path d="M225.5 293.498C225.5 293.498 221 489.5 221 514.5C246 516 568.202 512.44 568.202 512.44V323.23L646.632 355.826L738.035 228.158L595.328 127.654L457.339 78.76C435.52 81.1142 422 86.0002 389 86.0002C356 86.0002 329.5 82.5 318 78.5C318 78.5 248.5 95.1478 228 107.498C207.5 119.849 131 244.998 120.5 263.498C131 272.5 194.5 316.998 204.5 322.498C210.5 314.998 225.5 293.498 225.5 293.498ZM225.5 293.498C225.5 293.498 227 277 223 259.5" stroke="#040404" stroke-width="1.08984"/>
<path d="M307 81.5C323.5 92.5 353 95.5 389 95.5C425 95.5 424.003 89.2483 442.892 86" stroke="#040404" stroke-width="1.08984"/>
<path d="M302.5 82.5C320 96 353 99 389 99C425 99 424.003 92.2483 442.892 89" stroke="#040404" stroke-opacity="0.2" stroke-width="0.7" stroke-linecap="round" stroke-dasharray="3 3"/>
<path d="M234.272 171C241 195.5 231.426 286.727 225.5 293.5" stroke="#363636" stroke-opacity="0.5" stroke-width="1.08984"/>
<path d="M222 495.087C239.414 497.651 568 494 568 494" stroke="#040404" stroke-opacity="0.2" stroke-width="0.7" stroke-linecap="round" stroke-dasharray="3 3"/>
<path d="M222 491.087C239.414 493.651 568 490 568 490" stroke="#040404" stroke-opacity="0.2" stroke-width="0.7" stroke-linecap="round" stroke-dasharray="3 3"/>
<path d="M128 251.5C138.875 260.502 203.643 304.5 214 310" stroke="#040404" stroke-opacity="0.2" stroke-width="0.7" stroke-linecap="round" stroke-dasharray="3 3"/>
<path d="M129.5 249C140.375 258.002 205.643 302.5 216 308" stroke="#040404" stroke-opacity="0.2" stroke-width="0.7" stroke-linecap="round" stroke-dasharray="3 3"/>
</g>
<mask id="mask1_1_70" style="mask-type:alpha" maskUnits="userSpaceOnUse" x="389" y="0" width="390" height="607">
<rect width="389" height="607" transform="matrix(-1 0 0 1 778.035 0)" fill="#D9D9D9"/>
</mask>
<g mask="url(#mask1_1_70)">
<path d="M209.833 323.23V512.44C209.833 512.44 532.035 516 557.035 514.5C557.035 489.5 552.535 293.498 552.535 293.498C552.535 293.498 567.535 314.998 573.535 322.498C583.535 316.998 647.035 272.5 657.535 263.498C647.035 244.998 570.535 119.849 550.035 107.498C529.535 95.1478 460.035 78.5 460.035 78.5C448.535 82.5 422.035 86.0002 389.035 86.0002C356.035 86.0002 342.515 81.1142 320.696 78.76L182.707 127.654L39.9999 228.158L131.403 355.826L209.833 323.23Z" fill="#F9F9F9"/>
<path d="M552.535 293.498C552.535 293.498 557.035 489.5 557.035 514.5C532.035 516 209.833 512.44 209.833 512.44V323.23L131.403 355.826L39.9999 228.158L182.707 127.654L320.696 78.76C342.515 81.1142 356.035 86.0002 389.035 86.0002C422.035 86.0002 448.535 82.5 460.035 78.5C460.035 78.5 529.535 95.1478 550.035 107.498C570.535 119.849 647.035 244.998 657.535 263.498C647.035 272.5 583.535 316.998 573.535 322.498C567.535 314.998 552.535 293.498 552.535 293.498ZM552.535 293.498C552.535 293.498 551.035 277 555.035 259.5" stroke="#040404" stroke-width="1.08984"/>
<path d="M471.035 81.5C454.535 92.5 425.035 95.5 389.035 95.5C353.035 95.5 354.031 89.2483 335.142 86" stroke="#040404" stroke-width="1.08984"/>
<path d="M475.535 82.5C458.035 96 425.035 99 389.035 99C353.035 99 354.031 92.2483 335.142 89" stroke="#040404" stroke-opacity="0.2" stroke-width="0.7" stroke-linecap="round" stroke-dasharray="3 3"/>
<path d="M543.763 171C537.035 195.5 546.609 286.727 552.535 293.5" stroke="#363636" stroke-opacity="0.5" stroke-width="1.08984"/>
<path d="M556.035 495.087C538.62 497.651 210.035 494 210.035 494" stroke="#040404" stroke-opacity="0.2" stroke-width="0.7" stroke-linecap="round" stroke-dasharray="3 3"/>
<path d="M556.035 491.087C538.62 493.651 210.035 490 210.035 490" stroke="#040404" stroke-opacity="0.2" stroke-width="0.7" stroke-linecap="round" stroke-dasharray="3 3"/>
<path d="M650.035 251.5C639.16 260.502 574.392 304.5 564.035 310" stroke="#040404" stroke-opacity="0.2" stroke-width="0.7" stroke-linecap="round" stroke-dasharray="3 3"/>
<path d="M648.535 249C637.66 258.002 572.392 302.5 562.035 308" stroke="#040404" stroke-opacity="0.2" stroke-width="0.7" stroke-linecap="round" stroke-dasharray="3 3"/>
</g>
</svg>
