<svg width="518" height="451" viewBox="0 0 518 451" fill="none" xmlns="http://www.w3.org/2000/svg">
<mask id="mask0_55_775" style="mask-type:alpha" maskUnits="userSpaceOnUse" x="0" y="0" width="259" height="451">
<rect width="258.935" height="451" fill="#D9D9D9"/>
</mask>
<g mask="url(#mask0_55_775)">
<path d="M127.205 422.09C154.104 422.09 392.174 421.838 392.174 421.838C392.174 421.838 386.279 257.246 386.028 213.627C406.297 220.182 434.672 224.721 434.672 224.721L473.625 160.426L381.646 94.1147L305.952 62.5978C294.911 64.2837 280.052 68.3791 259.438 68.3791C238.823 68.3791 227.259 65.6138 213.017 62.3457C213.017 62.3457 148.573 78.4583 135.752 84.7197C122.931 90.9812 64.3563 168.239 49.0213 190.613C60.334 201.675 95.0263 230.277 108.602 240.584C126.199 223.432 127.959 221.478 127.959 221.478C127.959 221.478 127.205 405.498 127.205 422.09Z" fill="#F9F9F9"/>
<path d="M126.702 188.294C128.713 196.841 127.959 221.478 127.959 221.478M127.959 221.478C127.959 221.478 126.199 223.432 108.602 240.584C95.0263 230.277 60.334 201.675 49.0213 190.613C64.3563 168.239 122.931 90.9812 135.752 84.7197C148.573 78.4583 213.017 62.3457 213.017 62.3457C227.259 65.6138 238.823 68.3791 259.438 68.3791C280.052 68.3791 294.911 64.2837 305.952 62.5978L381.646 94.1147L473.625 160.426L434.672 224.721C434.672 224.721 406.297 220.182 386.028 213.627C386.279 257.246 392.173 421.838 392.173 421.838C392.173 421.838 154.104 422.09 127.205 422.09C127.205 405.498 127.959 221.478 127.959 221.478Z" stroke="#040404" stroke-width="0.547958"/>
<path d="M386.042 413.291C386.042 413.291 136.758 415.051 126.953 413.542" stroke="#040404" stroke-opacity="0.2" stroke-width="0.351951" stroke-linecap="round" stroke-dasharray="1.51 1.51"/>
<path d="M386.042 409.771C386.042 409.771 136.758 411.531 126.953 410.023" stroke="#040404" stroke-opacity="0.2" stroke-width="0.351951" stroke-linecap="round" stroke-dasharray="1.51 1.51"/>
<path d="M137.261 92.5132C139.942 115.893 132.233 214.69 127.959 221.478" stroke="#363636" stroke-opacity="0.5" stroke-width="0.547958"/>
<path d="M317.258 67.6651C309.15 78.7684 294.633 108.099 258.935 108.099C223.237 108.099 208.656 78.6864 205.891 64.6084" stroke="#040404" stroke-opacity="0.2" stroke-width="0.351951" stroke-linecap="round" stroke-dasharray="1.51 1.51"/>
<path d="M309.716 63.854C305.945 78.6862 292.119 106.088 258.935 106.088C225.751 106.088 211.17 79.189 207.651 64.1054" stroke="#040404" stroke-width="0.547958"/>
<path d="M317.258 65.2529C309.664 75.0104 291.868 99.8033 259.438 99.8033C227.008 99.8033 216.449 74.664 213.181 62.3457" stroke="#040404" stroke-width="0.547958"/>
<path d="M113.127 236.31C101.06 228.014 64.608 195.836 53.2953 184.774" stroke="#040404" stroke-opacity="0.2" stroke-width="0.351951" stroke-linecap="round" stroke-dasharray="1.51 1.51"/>
<path d="M114.635 234.299C102.568 226.003 66.6186 193.573 55.3059 182.512" stroke="#040404" stroke-opacity="0.2" stroke-width="0.351951" stroke-linecap="round" stroke-dasharray="1.51 1.51"/>
<path d="M216.45 71.8988C246.036 79.7948 279.158 80.3307 303.18 69.8877" stroke="#040404" stroke-width="0.547958"/>
<path d="M217.706 74.1512C247.207 81.9127 280.303 81.7032 302.677 71.6475" stroke="#040404" stroke-opacity="0.2" stroke-width="0.351951" stroke-linecap="round" stroke-dasharray="1.51 1.51"/>
</g>
<mask id="mask1_55_775" style="mask-type:alpha" maskUnits="userSpaceOnUse" x="258" y="0" width="260" height="451">
<rect width="258.935" height="451" transform="matrix(-1 0 0 1 517.87 0)" fill="#D9D9D9"/>
</mask>
<g mask="url(#mask1_55_775)">
<path d="M387.42 421.744C360.521 421.744 122.451 421.493 122.451 421.493C122.451 421.493 128.346 256.9 128.597 213.281C108.327 219.837 79.9528 224.375 79.9528 224.375L40.9998 160.081L132.979 93.769L208.672 62.2521C219.713 63.938 234.573 68.0334 255.187 68.0334C275.801 68.0334 287.365 65.2681 301.608 62C301.608 62 366.052 78.1126 378.873 84.374C391.694 90.6355 450.268 167.894 465.603 190.268C454.291 201.329 419.598 229.931 406.023 240.238C388.426 223.086 386.666 221.132 386.666 221.132C386.666 221.132 387.42 405.152 387.42 421.744Z" fill="#F9F9F9"/>
<path d="M388.677 188.2C385.409 196.244 386.666 221.132 386.666 221.132M386.666 221.132C386.666 221.132 388.426 223.086 406.023 240.238C419.598 229.931 454.291 201.329 465.603 190.268C450.268 167.894 391.694 90.6355 378.873 84.374C366.052 78.1126 301.608 62 301.608 62C287.365 65.2681 275.801 68.0334 255.187 68.0334C234.573 68.0334 219.713 63.938 208.672 62.2521L132.979 93.769L40.9998 160.081L79.9528 224.375C79.9528 224.375 108.327 219.837 128.597 213.281C128.346 256.9 122.451 421.493 122.451 421.493C122.451 421.493 360.521 421.744 387.42 421.744C387.42 405.152 386.666 221.132 386.666 221.132Z" stroke="#040404" stroke-width="0.547958"/>
<path d="M131.828 413.291C131.828 413.291 381.112 415.051 390.916 413.542" stroke="#040404" stroke-opacity="0.2" stroke-width="0.351951" stroke-linecap="round" stroke-dasharray="1.51 1.51"/>
<path d="M131.828 409.771C131.828 409.771 381.112 411.531 390.916 410.023" stroke="#040404" stroke-opacity="0.2" stroke-width="0.351951" stroke-linecap="round" stroke-dasharray="1.51 1.51"/>
<path d="M377.553 93C374.872 116.38 382.581 215.177 386.855 221.965" stroke="#363636" stroke-opacity="0.5" stroke-width="0.547958"/>
<path d="M200.612 67.6647C208.72 78.7679 223.237 108.099 258.935 108.099C294.633 108.099 309.214 78.6859 311.979 64.6079" stroke="#040404" stroke-opacity="0.2" stroke-width="0.351951" stroke-linecap="round" stroke-dasharray="1.51 1.51"/>
<path d="M208.154 63.854C211.924 78.6862 225.751 106.088 258.935 106.088C292.119 106.088 306.7 79.189 310.219 64.1054" stroke="#040404" stroke-width="0.547958"/>
<path d="M200.612 65.2529C208.206 75.0104 226.002 99.8033 258.432 99.8033C290.862 99.8033 301.42 74.664 304.689 62.3457" stroke="#040404" stroke-width="0.547958"/>
<path d="M404.743 236.31C416.81 228.014 453.262 195.836 464.575 184.774" stroke="#040404" stroke-opacity="0.2" stroke-width="0.351951" stroke-linecap="round" stroke-dasharray="1.51 1.51"/>
<path d="M403.235 234.299C415.302 226.003 451.252 193.573 462.564 182.512" stroke="#040404" stroke-opacity="0.2" stroke-width="0.351951" stroke-linecap="round" stroke-dasharray="1.51 1.51"/>
<path d="M301.42 71.8984C271.834 79.7943 238.713 80.3302 214.69 69.8872" stroke="#040404" stroke-width="0.547958"/>
<path d="M300.164 74.1507C270.663 81.9122 237.567 81.7027 215.193 71.647" stroke="#040404" stroke-opacity="0.2" stroke-width="0.351951" stroke-linecap="round" stroke-dasharray="1.51 1.51"/>
</g>
</svg>
